<mxfile host="app.diagrams.net" modified="2022-05-10T08:32:06.796Z" agent="5.0 (Windows NT 10.0; Win64; x64) AppleWebKit/537.36 (KHTML, like Gecko) Chrome/100.0.4896.127 Safari/537.36" etag="o_vtqH-FPc4ASequ3pok" version="18.0.1" type="github">
  <diagram id="C5RBs43oDa-KdzZeNtuy" name="Page-1">
    <mxGraphModel dx="2719" dy="835" grid="1" gridSize="10" guides="1" tooltips="1" connect="1" arrows="1" fold="1" page="1" pageScale="1" pageWidth="1169" pageHeight="1654" math="0" shadow="0">
      <root>
        <mxCell id="WIyWlLk6GJQsqaUBKTNV-0" />
        <mxCell id="WIyWlLk6GJQsqaUBKTNV-1" parent="WIyWlLk6GJQsqaUBKTNV-0" />
        <mxCell id="WIyWlLk6GJQsqaUBKTNV-2" value="" style="rounded=0;html=1;jettySize=auto;orthogonalLoop=1;fontSize=11;endArrow=block;endFill=0;endSize=8;strokeWidth=1;shadow=0;labelBackgroundColor=none;edgeStyle=orthogonalEdgeStyle;entryX=0.5;entryY=0;entryDx=0;entryDy=0;" parent="WIyWlLk6GJQsqaUBKTNV-1" source="WIyWlLk6GJQsqaUBKTNV-3" target="EOSQG9518vQoy9oQ-2eD-2" edge="1">
          <mxGeometry relative="1" as="geometry">
            <mxPoint x="220" y="250" as="targetPoint" />
          </mxGeometry>
        </mxCell>
        <mxCell id="WIyWlLk6GJQsqaUBKTNV-3" value="开始" style="rounded=1;whiteSpace=wrap;html=1;fontSize=12;glass=0;strokeWidth=1;shadow=0;" parent="WIyWlLk6GJQsqaUBKTNV-1" vertex="1">
          <mxGeometry x="160.01" y="230" width="120" height="40" as="geometry" />
        </mxCell>
        <mxCell id="EOSQG9518vQoy9oQ-2eD-18" style="edgeStyle=orthogonalEdgeStyle;rounded=0;orthogonalLoop=1;jettySize=auto;html=1;exitX=0.5;exitY=1;exitDx=0;exitDy=0;entryX=0.5;entryY=0;entryDx=0;entryDy=0;fontSize=14;" edge="1" parent="WIyWlLk6GJQsqaUBKTNV-1" source="EOSQG9518vQoy9oQ-2eD-7" target="EOSQG9518vQoy9oQ-2eD-17">
          <mxGeometry relative="1" as="geometry" />
        </mxCell>
        <mxCell id="EOSQG9518vQoy9oQ-2eD-19" style="edgeStyle=orthogonalEdgeStyle;rounded=0;orthogonalLoop=1;jettySize=auto;html=1;exitX=0.5;exitY=1;exitDx=0;exitDy=0;fontSize=14;entryX=0.5;entryY=0;entryDx=0;entryDy=0;" edge="1" parent="WIyWlLk6GJQsqaUBKTNV-1" source="EOSQG9518vQoy9oQ-2eD-8" target="EOSQG9518vQoy9oQ-2eD-17">
          <mxGeometry relative="1" as="geometry">
            <mxPoint x="390" y="670" as="targetPoint" />
          </mxGeometry>
        </mxCell>
        <mxCell id="EOSQG9518vQoy9oQ-2eD-20" style="edgeStyle=orthogonalEdgeStyle;rounded=0;orthogonalLoop=1;jettySize=auto;html=1;exitX=0.5;exitY=1;exitDx=0;exitDy=0;fontSize=14;entryX=0.5;entryY=0;entryDx=0;entryDy=0;" edge="1" parent="WIyWlLk6GJQsqaUBKTNV-1" source="EOSQG9518vQoy9oQ-2eD-9" target="EOSQG9518vQoy9oQ-2eD-17">
          <mxGeometry relative="1" as="geometry">
            <mxPoint x="390" y="670" as="targetPoint" />
          </mxGeometry>
        </mxCell>
        <mxCell id="EOSQG9518vQoy9oQ-2eD-15" value="按钮1：立即投保" style="rounded=1;whiteSpace=wrap;html=1;fillStyle=hachure;fontSize=14;fillColor=#ffe6cc;strokeColor=#d79b00;" vertex="1" parent="WIyWlLk6GJQsqaUBKTNV-1">
          <mxGeometry x="-45.30000000000001" y="840" width="116.87" height="60" as="geometry" />
        </mxCell>
        <mxCell id="EOSQG9518vQoy9oQ-2eD-31" value="YES" style="edgeStyle=orthogonalEdgeStyle;rounded=0;orthogonalLoop=1;jettySize=auto;html=1;fontSize=14;" edge="1" parent="WIyWlLk6GJQsqaUBKTNV-1" source="EOSQG9518vQoy9oQ-2eD-17" target="EOSQG9518vQoy9oQ-2eD-30">
          <mxGeometry relative="1" as="geometry" />
        </mxCell>
        <mxCell id="EOSQG9518vQoy9oQ-2eD-63" value="NO" style="edgeStyle=orthogonalEdgeStyle;rounded=0;orthogonalLoop=1;jettySize=auto;html=1;exitX=1;exitY=0.5;exitDx=0;exitDy=0;entryX=0;entryY=0.5;entryDx=0;entryDy=0;fontSize=14;fontColor=#000000;" edge="1" parent="WIyWlLk6GJQsqaUBKTNV-1" source="EOSQG9518vQoy9oQ-2eD-17" target="EOSQG9518vQoy9oQ-2eD-34">
          <mxGeometry relative="1" as="geometry" />
        </mxCell>
        <mxCell id="EOSQG9518vQoy9oQ-2eD-17" value="是否支持预约咨询" style="rhombus;whiteSpace=wrap;html=1;fillStyle=hachure;fontSize=14;" vertex="1" parent="WIyWlLk6GJQsqaUBKTNV-1">
          <mxGeometry x="340" y="687" width="190" height="80" as="geometry" />
        </mxCell>
        <mxCell id="EOSQG9518vQoy9oQ-2eD-28" value="" style="group" vertex="1" connectable="0" parent="WIyWlLk6GJQsqaUBKTNV-1">
          <mxGeometry x="-203.12" y="412" width="846.25" height="120" as="geometry" />
        </mxCell>
        <mxCell id="EOSQG9518vQoy9oQ-2eD-2" value="&lt;b&gt;&lt;font style=&quot;font-size: 14px;&quot;&gt;&amp;nbsp; &amp;nbsp; 产品投保状态&lt;/font&gt;&lt;/b&gt;" style="rounded=1;whiteSpace=wrap;html=1;strokeWidth=2;fillWeight=4;hachureGap=8;hachureAngle=45;fillColor=#E1D5E7;sketch=1;gradientColor=#ffffff;fillStyle=hachure;align=left;horizontal=1;verticalAlign=top;" vertex="1" parent="EOSQG9518vQoy9oQ-2eD-28">
          <mxGeometry width="846.25" height="120" as="geometry" />
        </mxCell>
        <mxCell id="EOSQG9518vQoy9oQ-2eD-3" value="小程序投保" style="shape=ext;double=1;rounded=0;whiteSpace=wrap;html=1;fillStyle=hachure;fontSize=14;" vertex="1" parent="EOSQG9518vQoy9oQ-2eD-28">
          <mxGeometry x="16.25" y="38" width="120" height="60" as="geometry" />
        </mxCell>
        <mxCell id="EOSQG9518vQoy9oQ-2eD-5" value="客服投保" style="shape=ext;double=1;rounded=0;whiteSpace=wrap;html=1;fillStyle=hachure;fontSize=14;" vertex="1" parent="EOSQG9518vQoy9oQ-2eD-28">
          <mxGeometry x="156.25" y="38" width="120" height="60" as="geometry" />
        </mxCell>
        <mxCell id="EOSQG9518vQoy9oQ-2eD-6" value="支付宝投保" style="shape=ext;double=1;rounded=0;whiteSpace=wrap;html=1;fillStyle=hachure;fontSize=14;" vertex="1" parent="EOSQG9518vQoy9oQ-2eD-28">
          <mxGeometry x="296.25" y="38" width="120" height="60" as="geometry" />
        </mxCell>
        <mxCell id="EOSQG9518vQoy9oQ-2eD-7" value="预约投保" style="shape=ext;double=1;rounded=0;whiteSpace=wrap;html=1;fillStyle=hachure;fontSize=14;" vertex="1" parent="EOSQG9518vQoy9oQ-2eD-28">
          <mxGeometry x="436.25" y="38" width="120" height="60" as="geometry" />
        </mxCell>
        <mxCell id="EOSQG9518vQoy9oQ-2eD-8" value="投保咨询" style="shape=ext;double=1;rounded=0;whiteSpace=wrap;html=1;fillStyle=hachure;fontSize=14;" vertex="1" parent="EOSQG9518vQoy9oQ-2eD-28">
          <mxGeometry x="576.25" y="38" width="120" height="60" as="geometry" />
        </mxCell>
        <mxCell id="EOSQG9518vQoy9oQ-2eD-9" value="不可投保" style="shape=ext;double=1;rounded=0;whiteSpace=wrap;html=1;fillStyle=hachure;fontSize=14;" vertex="1" parent="EOSQG9518vQoy9oQ-2eD-28">
          <mxGeometry x="706.25" y="38" width="120" height="60" as="geometry" />
        </mxCell>
        <mxCell id="EOSQG9518vQoy9oQ-2eD-39" value="" style="edgeStyle=orthogonalEdgeStyle;rounded=0;orthogonalLoop=1;jettySize=auto;html=1;fontSize=14;fontColor=#000000;" edge="1" parent="WIyWlLk6GJQsqaUBKTNV-1" source="EOSQG9518vQoy9oQ-2eD-30" target="EOSQG9518vQoy9oQ-2eD-38">
          <mxGeometry relative="1" as="geometry" />
        </mxCell>
        <mxCell id="EOSQG9518vQoy9oQ-2eD-30" value="按钮2：免费咨询" style="rounded=1;whiteSpace=wrap;html=1;fontSize=14;fillStyle=hachure;fillColor=#ffe6cc;strokeColor=#d79b00;" vertex="1" parent="WIyWlLk6GJQsqaUBKTNV-1">
          <mxGeometry x="375" y="840" width="120" height="60" as="geometry" />
        </mxCell>
        <mxCell id="EOSQG9518vQoy9oQ-2eD-36" style="edgeStyle=orthogonalEdgeStyle;rounded=0;orthogonalLoop=1;jettySize=auto;html=1;exitX=0.5;exitY=1;exitDx=0;exitDy=0;fontSize=14;fontColor=#000000;entryX=0.5;entryY=0;entryDx=0;entryDy=0;" edge="1" parent="WIyWlLk6GJQsqaUBKTNV-1" source="EOSQG9518vQoy9oQ-2eD-34" target="EOSQG9518vQoy9oQ-2eD-37">
          <mxGeometry relative="1" as="geometry">
            <mxPoint x="714.87" y="810" as="targetPoint" />
          </mxGeometry>
        </mxCell>
        <mxCell id="EOSQG9518vQoy9oQ-2eD-34" value="按钮2：客服咨询" style="rounded=1;whiteSpace=wrap;html=1;fontSize=14;fillStyle=hachure;fillColor=#ffe6cc;strokeColor=#d79b00;" vertex="1" parent="WIyWlLk6GJQsqaUBKTNV-1">
          <mxGeometry x="690" y="697" width="120" height="60" as="geometry" />
        </mxCell>
        <mxCell id="EOSQG9518vQoy9oQ-2eD-37" value="跳转小程序客服页" style="rounded=1;whiteSpace=wrap;html=1;fillStyle=hachure;fontSize=14;fontColor=#000000;fillColor=#FFFFFF;gradientColor=none;" vertex="1" parent="WIyWlLk6GJQsqaUBKTNV-1">
          <mxGeometry x="690" y="840" width="120" height="60" as="geometry" />
        </mxCell>
        <mxCell id="EOSQG9518vQoy9oQ-2eD-38" value="显示免费咨询弹窗" style="rounded=1;whiteSpace=wrap;html=1;fontSize=14;fillStyle=hachure;" vertex="1" parent="WIyWlLk6GJQsqaUBKTNV-1">
          <mxGeometry x="375" y="957" width="120" height="60" as="geometry" />
        </mxCell>
        <mxCell id="EOSQG9518vQoy9oQ-2eD-51" style="edgeStyle=orthogonalEdgeStyle;rounded=0;orthogonalLoop=1;jettySize=auto;html=1;exitX=0.5;exitY=1;exitDx=0;exitDy=0;entryX=0.5;entryY=0;entryDx=0;entryDy=0;fontSize=14;fontColor=#000000;" edge="1" parent="WIyWlLk6GJQsqaUBKTNV-1" source="EOSQG9518vQoy9oQ-2eD-46" target="EOSQG9518vQoy9oQ-2eD-15">
          <mxGeometry relative="1" as="geometry" />
        </mxCell>
        <mxCell id="EOSQG9518vQoy9oQ-2eD-52" value="YES" style="edgeLabel;html=1;align=center;verticalAlign=middle;resizable=0;points=[];fontSize=14;fontColor=#000000;" vertex="1" connectable="0" parent="EOSQG9518vQoy9oQ-2eD-51">
          <mxGeometry x="-0.3245" y="-1" relative="1" as="geometry">
            <mxPoint as="offset" />
          </mxGeometry>
        </mxCell>
        <mxCell id="EOSQG9518vQoy9oQ-2eD-46" value="是否在售" style="rhombus;whiteSpace=wrap;html=1;shadow=0;fontFamily=Helvetica;fontSize=12;align=center;strokeWidth=1;spacing=6;spacingTop=-4;" vertex="1" parent="WIyWlLk6GJQsqaUBKTNV-1">
          <mxGeometry x="-49.519999999999996" y="687" width="125.3" height="83" as="geometry" />
        </mxCell>
        <mxCell id="EOSQG9518vQoy9oQ-2eD-48" style="edgeStyle=orthogonalEdgeStyle;rounded=0;orthogonalLoop=1;jettySize=auto;html=1;exitX=0.5;exitY=1;exitDx=0;exitDy=0;entryX=0.5;entryY=0;entryDx=0;entryDy=0;fontSize=14;fontColor=#000000;" edge="1" parent="WIyWlLk6GJQsqaUBKTNV-1" source="EOSQG9518vQoy9oQ-2eD-5" target="EOSQG9518vQoy9oQ-2eD-46">
          <mxGeometry relative="1" as="geometry" />
        </mxCell>
        <mxCell id="EOSQG9518vQoy9oQ-2eD-49" style="edgeStyle=orthogonalEdgeStyle;rounded=0;orthogonalLoop=1;jettySize=auto;html=1;exitX=0.5;exitY=1;exitDx=0;exitDy=0;entryX=0.5;entryY=0;entryDx=0;entryDy=0;fontSize=14;fontColor=#000000;" edge="1" parent="WIyWlLk6GJQsqaUBKTNV-1" source="EOSQG9518vQoy9oQ-2eD-6" target="EOSQG9518vQoy9oQ-2eD-46">
          <mxGeometry relative="1" as="geometry" />
        </mxCell>
        <mxCell id="EOSQG9518vQoy9oQ-2eD-50" style="edgeStyle=orthogonalEdgeStyle;rounded=0;orthogonalLoop=1;jettySize=auto;html=1;exitX=0.5;exitY=1;exitDx=0;exitDy=0;entryX=0.5;entryY=0;entryDx=0;entryDy=0;fontSize=14;fontColor=#000000;" edge="1" parent="WIyWlLk6GJQsqaUBKTNV-1" source="EOSQG9518vQoy9oQ-2eD-3" target="EOSQG9518vQoy9oQ-2eD-46">
          <mxGeometry relative="1" as="geometry" />
        </mxCell>
        <mxCell id="EOSQG9518vQoy9oQ-2eD-55" style="edgeStyle=orthogonalEdgeStyle;rounded=0;orthogonalLoop=1;jettySize=auto;html=1;exitX=0.5;exitY=1;exitDx=0;exitDy=0;entryX=0.5;entryY=0;entryDx=0;entryDy=0;fontSize=14;fontColor=#000000;" edge="1" parent="WIyWlLk6GJQsqaUBKTNV-1" source="EOSQG9518vQoy9oQ-2eD-8" target="EOSQG9518vQoy9oQ-2eD-17">
          <mxGeometry relative="1" as="geometry" />
        </mxCell>
        <mxCell id="EOSQG9518vQoy9oQ-2eD-59" style="edgeStyle=orthogonalEdgeStyle;rounded=0;orthogonalLoop=1;jettySize=auto;html=1;exitX=0.5;exitY=0;exitDx=0;exitDy=0;fontSize=14;fontColor=#000000;entryX=0.5;entryY=0;entryDx=0;entryDy=0;" edge="1" parent="WIyWlLk6GJQsqaUBKTNV-1" source="EOSQG9518vQoy9oQ-2eD-8" target="EOSQG9518vQoy9oQ-2eD-61">
          <mxGeometry relative="1" as="geometry">
            <mxPoint x="840" y="530" as="targetPoint" />
          </mxGeometry>
        </mxCell>
        <mxCell id="EOSQG9518vQoy9oQ-2eD-60" style="edgeStyle=orthogonalEdgeStyle;rounded=0;orthogonalLoop=1;jettySize=auto;html=1;exitX=0.5;exitY=1;exitDx=0;exitDy=0;fontSize=14;fontColor=#000000;entryX=0.5;entryY=0;entryDx=0;entryDy=0;" edge="1" parent="WIyWlLk6GJQsqaUBKTNV-1" source="EOSQG9518vQoy9oQ-2eD-61" target="EOSQG9518vQoy9oQ-2eD-62">
          <mxGeometry relative="1" as="geometry">
            <mxPoint x="1008" y="670" as="targetPoint" />
          </mxGeometry>
        </mxCell>
        <mxCell id="EOSQG9518vQoy9oQ-2eD-61" value="&lt;font&gt;非互联网新品&amp;amp;&amp;amp;有替代产品&lt;/font&gt;" style="rhombus;whiteSpace=wrap;html=1;fillStyle=hachure;fontSize=14;fontColor=#000000;" vertex="1" parent="WIyWlLk6GJQsqaUBKTNV-1">
          <mxGeometry x="870" y="510" width="275" height="80" as="geometry" />
        </mxCell>
        <mxCell id="EOSQG9518vQoy9oQ-2eD-62" value="按钮1：查看相似" style="rounded=1;whiteSpace=wrap;html=1;fontSize=14;fillStyle=hachure;fillColor=#ffe6cc;strokeColor=#d79b00;" vertex="1" parent="WIyWlLk6GJQsqaUBKTNV-1">
          <mxGeometry x="947.5" y="650" width="120" height="60" as="geometry" />
        </mxCell>
      </root>
    </mxGraphModel>
  </diagram>
</mxfile>
